<svg width="34" height="29" viewBox="0 0 34 29" fill="none" xmlns="http://www.w3.org/2000/svg">
<path d="M17.0001 29C16.6794 29.0066 16.3648 28.8764 16.098 28.6266L2.62967 15.2561C-0.874971 11.7696 -0.874971 6.09992 2.62967 2.60068C4.51204 0.842412 6.73301 -0.0651634 8.99396 -1.92155e-05C11.2564 -0.0595561 13.4774 0.854694 15.3583 2.61966L17.0001 4.24589L18.6419 2.61966C22.151 -0.866919 27.8613 -0.866919 31.3705 2.61966C34.8796 6.10624 34.8796 11.7696 31.3705 15.2751L17.9067 28.6266C17.6382 28.8766 17.3222 29.0067 17.0001 29ZM8.99396 2.53107C7.37426 2.49605 5.78584 3.15861 4.44289 4.42939C1.93055 6.92252 1.93055 10.9786 4.44289 13.4717L0.999969 9.5L5.49997 2L12.5 2.53107L17.0046 7.3332L23 1.5L30 4L33 10L29.5618 13.4591C32.0696 10.9659 32.0696 6.90987 29.5618 4.41674C27.0539 1.92361 22.9674 1.8983 20.4506 4.42939L17.9067 6.96049C17.6378 7.2038 17.3246 7.3332 17.0046 7.3332C16.6846 7.3332 16.3714 7.2038 16.1025 6.96049L13.5315 4.42939C12.1922 3.16269 10.609 2.50035 8.99396 2.53107Z" fill="#E13B3F"/>
</svg>
