<svg width="178" height="41" viewBox="0 0 178 41" fill="none" xmlns="http://www.w3.org/2000/svg">
<circle cx="19" cy="22" r="19" fill="#FFD60A"/>
<path d="M23.15 26.35H16.7L15.11 31H11L18.56 9.85H21.59L29.15 31H24.83L23.15 26.35ZM17.75 23.05H22.25L20.69 18.37L20.06 15.07H19.91L19.28 18.4L17.75 23.05ZM30.8741 16H33.7241L34.1741 17.8H34.2941C34.8141 17.04 35.4241 16.48 36.1241 16.12C36.8441 15.76 37.7141 15.58 38.7341 15.58C40.6141 15.58 42.0241 16.18 42.9641 17.38C43.9041 18.56 44.3741 20.47 44.3741 23.11C44.3741 24.39 44.2241 25.55 43.9241 26.59C43.6241 27.61 43.1741 28.48 42.5741 29.2C41.9941 29.92 41.2741 30.47 40.4141 30.85C39.5741 31.23 38.6041 31.42 37.5041 31.42C36.8841 31.42 36.3741 31.37 35.9741 31.27C35.5741 31.19 35.1741 31.05 34.7741 30.85V37H30.8741V16ZM37.5641 18.88C36.8041 18.88 36.2041 19.07 35.7641 19.45C35.3441 19.83 35.0141 20.4 34.7741 21.16V27.4C35.0541 27.62 35.3541 27.8 35.6741 27.94C36.0141 28.06 36.4541 28.12 36.9941 28.12C38.1141 28.12 38.9541 27.73 39.5141 26.95C40.0741 26.15 40.3541 24.84 40.3541 23.02C40.3541 21.7 40.1341 20.68 39.6941 19.96C39.2541 19.24 38.5441 18.88 37.5641 18.88ZM52.0252 24.79H50.9752V31H47.0752V16H50.9752V22.39L51.9052 21.97L55.4152 16H59.5852L55.9552 21.7L54.4252 22.84L56.1052 24.01L60.1552 31H55.6852L52.0252 24.79ZM60.6521 23.5C60.6521 20.96 61.2721 19.01 62.5121 17.65C63.7521 16.27 65.4921 15.58 67.7321 15.58C68.9321 15.58 69.9721 15.77 70.8521 16.15C71.7321 16.53 72.4621 17.07 73.0421 17.77C73.6221 18.45 74.0521 19.28 74.3321 20.26C74.6321 21.24 74.7821 22.32 74.7821 23.5C74.7821 26.04 74.1621 28 72.9221 29.38C71.7021 30.74 69.9721 31.42 67.7321 31.42C66.5321 31.42 65.4921 31.23 64.6121 30.85C63.7321 30.47 62.9921 29.94 62.3921 29.26C61.8121 28.56 61.3721 27.72 61.0721 26.74C60.7921 25.76 60.6521 24.68 60.6521 23.5ZM64.6721 23.5C64.6721 24.16 64.7321 24.77 64.8521 25.33C64.9721 25.89 65.1521 26.38 65.3921 26.8C65.6321 27.22 65.9421 27.55 66.3221 27.79C66.7221 28.01 67.1921 28.12 67.7321 28.12C68.7521 28.12 69.5121 27.75 70.0121 27.01C70.5121 26.27 70.7621 25.1 70.7621 23.5C70.7621 22.12 70.5321 21.01 70.0721 20.17C69.6121 19.31 68.8321 18.88 67.7321 18.88C66.7721 18.88 66.0221 19.24 65.4821 19.96C64.9421 20.68 64.6721 21.86 64.6721 23.5ZM93.8654 20.11L94.3154 15.94H94.1354L92.8454 19.3L88.3754 27.13H87.0554L82.3454 19.27L81.0254 15.94H80.8754L81.4754 20.08V31H77.5754V10H81.3254L86.9354 19.6L87.9254 22H88.0454L88.9454 19.54L94.2554 10H97.9754V31H93.8654V20.11ZM113.48 29.71C112.88 30.19 112.06 30.6 111.02 30.94C110 31.26 108.91 31.42 107.75 31.42C105.33 31.42 103.56 30.72 102.44 29.32C101.32 27.9 100.76 25.96 100.76 23.5C100.76 20.86 101.39 18.88 102.65 17.56C103.91 16.24 105.68 15.58 107.96 15.58C108.72 15.58 109.46 15.68 110.18 15.88C110.9 16.08 111.54 16.41 112.1 16.87C112.66 17.33 113.11 17.95 113.45 18.73C113.79 19.51 113.96 20.48 113.96 21.64C113.96 22.06 113.93 22.51 113.87 22.99C113.83 23.47 113.76 23.97 113.66 24.49H104.66C104.72 25.75 105.04 26.7 105.62 27.34C106.22 27.98 107.18 28.3 108.5 28.3C109.32 28.3 110.05 28.18 110.69 27.94C111.35 27.68 111.85 27.42 112.19 27.16L113.48 29.71ZM107.9 18.7C106.88 18.7 106.12 19.01 105.62 19.63C105.14 20.23 104.85 21.04 104.75 22.06H110.33C110.41 20.98 110.24 20.15 109.82 19.57C109.42 18.99 108.78 18.7 107.9 18.7ZM119.264 18.82C119.844 17.94 120.524 17.31 121.304 16.93C122.104 16.53 123.064 16.33 124.184 16.33C126.004 16.33 127.444 16.89 128.504 18.01C129.584 19.11 130.124 20.83 130.124 23.17C130.124 25.87 129.514 27.92 128.294 29.32C127.074 30.72 125.354 31.42 123.134 31.42C120.814 31.42 119.044 30.65 117.824 29.11C116.604 27.57 115.994 25.17 115.994 21.91C115.994 20.19 116.094 18.72 116.294 17.5C116.494 16.28 116.774 15.25 117.134 14.41C117.514 13.57 117.954 12.9 118.454 12.4C118.974 11.9 119.544 11.51 120.164 11.23C120.804 10.93 121.484 10.72 122.204 10.6C122.924 10.48 123.684 10.38 124.484 10.3C125.524 10.2 126.414 10.08 127.154 9.94C127.894 9.78 128.444 9.53 128.804 9.19L128.954 12.67C128.554 13.01 127.984 13.25 127.244 13.39C126.504 13.51 125.504 13.62 124.244 13.72C123.484 13.76 122.814 13.85 122.234 13.99C121.654 14.13 121.154 14.38 120.734 14.74C120.314 15.1 119.974 15.61 119.714 16.27C119.474 16.91 119.294 17.76 119.174 18.82H119.264ZM120.014 23.68C120.014 24.96 120.264 26.02 120.764 26.86C121.264 27.7 122.034 28.12 123.074 28.12C124.154 28.12 124.924 27.74 125.384 26.98C125.864 26.22 126.104 25.12 126.104 23.68C126.104 22.38 125.884 21.38 125.444 20.68C125.004 19.98 124.274 19.63 123.254 19.63C122.154 19.63 121.334 19.99 120.794 20.71C120.274 21.43 120.014 22.42 120.014 23.68ZM144.827 29.71C144.227 30.19 143.407 30.6 142.367 30.94C141.347 31.26 140.257 31.42 139.097 31.42C136.677 31.42 134.907 30.72 133.787 29.32C132.667 27.9 132.107 25.96 132.107 23.5C132.107 20.86 132.737 18.88 133.997 17.56C135.257 16.24 137.027 15.58 139.307 15.58C140.067 15.58 140.807 15.68 141.527 15.88C142.247 16.08 142.887 16.41 143.447 16.87C144.007 17.33 144.457 17.95 144.797 18.73C145.137 19.51 145.307 20.48 145.307 21.64C145.307 22.06 145.277 22.51 145.217 22.99C145.177 23.47 145.107 23.97 145.007 24.49H136.007C136.067 25.75 136.387 26.7 136.967 27.34C137.567 27.98 138.527 28.3 139.847 28.3C140.667 28.3 141.397 28.18 142.037 27.94C142.697 27.68 143.197 27.42 143.537 27.16L144.827 29.71ZM139.247 18.7C138.227 18.7 137.467 19.01 136.967 19.63C136.487 20.23 136.197 21.04 136.097 22.06H141.677C141.757 20.98 141.587 20.15 141.167 19.57C140.767 18.99 140.127 18.7 139.247 18.7ZM155.899 19.45H152.929C152.809 20.87 152.669 22.28 152.509 23.68C152.349 25.08 152.089 26.34 151.729 27.46C151.389 28.56 150.919 29.46 150.319 30.16C149.719 30.84 148.939 31.18 147.979 31.18C146.819 31.18 145.999 31.03 145.519 30.73L145.999 27.49C146.319 27.61 146.619 27.67 146.899 27.67C147.299 27.67 147.649 27.5 147.949 27.16C148.249 26.82 148.499 26.21 148.699 25.33C148.919 24.45 149.089 23.26 149.209 21.76C149.349 20.24 149.449 18.32 149.509 16H159.799V31H155.899V19.45ZM167.079 27.73C167.679 27.85 168.249 27.91 168.789 27.91C169.749 27.91 170.439 27.75 170.859 27.43C171.299 27.09 171.519 26.57 171.519 25.87C171.519 24.57 170.639 23.92 168.879 23.92C168.219 23.92 167.619 23.99 167.079 24.13V27.73ZM167.079 21.34C167.559 21.26 168.039 21.21 168.519 21.19C169.019 21.15 169.469 21.13 169.869 21.13C170.909 21.13 171.789 21.25 172.509 21.49C173.229 21.71 173.809 22.03 174.249 22.45C174.709 22.87 175.039 23.37 175.239 23.95C175.439 24.51 175.539 25.12 175.539 25.78C175.539 27.6 174.999 28.96 173.919 29.86C172.839 30.76 171.009 31.21 168.429 31.21C167.289 31.21 166.299 31.19 165.459 31.15C164.639 31.11 163.879 31.06 163.179 31V16H167.079V21.34Z" fill="white"/>
<rect x="11" y="7" width="18" height="3" fill="white"/>
</svg>
