<svg width="189" height="39" viewBox="0 0 189 39" fill="none" xmlns="http://www.w3.org/2000/svg">
<path fill-rule="evenodd" clip-rule="evenodd" d="M19.5 0C30.27 0 39 8.73004 39 19.5C39 30.27 30.27 39 19.5 39C8.73004 39 0 30.27 0 19.5C0 8.73004 8.73004 0 19.5 0Z" fill="#FBD051"/>
<path d="M12.1078 30.6361H9.05466C8.70391 30.6361 8.55966 30.4539 8.68109 30.1063L15.1438 11.6345H11.0455C10.7349 11.6345 10.5779 11.4888 10.5779 11.1979V8.83088C10.5779 8.51957 10.7342 8.36373 11.0455 8.36373C16.6822 8.36373 22.3185 8.36373 27.9553 8.36373C28.2673 8.36373 28.4224 8.52035 28.4224 8.83088V11.1979C28.4224 11.488 28.2666 11.6345 27.9553 11.6345H23.8634L30.3262 30.1063C30.4298 30.4597 30.3053 30.6361 29.9522 30.6361H26.8991C26.6087 30.6361 26.432 30.5119 26.3693 30.2625L24.8434 25.5589H14.1639L12.6376 30.2625C12.5575 30.5112 12.3765 30.6361 12.1078 30.6361ZM32.8178 15.2526C34.7278 14.5051 36.8245 14.1316 39.1084 14.1316C41.2671 14.1316 43.0007 14.7023 44.3082 15.8443C45.6164 16.9863 46.2704 18.6882 46.2704 20.9512V24.3767C46.2704 26.3907 45.6265 27.9995 44.3395 29.2037C43.0525 30.4075 41.4024 31.0096 39.3884 31.0096C38.2468 31.0096 37.1463 30.7815 36.0874 30.3248V36.0856C36.0874 36.3969 35.9316 36.5528 35.6203 36.5528H32.9423C32.631 36.5528 32.4755 36.3969 32.4755 36.0856V15.7511C32.4755 15.5017 32.5896 15.3358 32.8178 15.2526ZM39.0771 27.8336C41.4229 27.8336 42.5958 26.6912 42.5958 24.4081V20.9207C42.5958 19.6329 42.295 18.7095 41.6932 18.1487C41.0911 17.5884 40.1982 17.3076 39.0149 17.3076C37.7689 17.3076 36.7932 17.453 36.0874 17.7438V26.9615C36.9386 27.5428 37.9348 27.8336 39.0771 27.8336ZM62.9926 30.6361H59.8475C59.5775 30.6361 59.3908 30.5425 59.2867 30.3561L54.4292 23.9718L53.1523 25.342V30.1689C53.1523 30.4802 52.9961 30.6361 52.6848 30.6361H50.1004C49.7891 30.6361 49.6336 30.4802 49.6336 30.1689V14.9727C49.6336 14.6613 49.7891 14.5051 50.1004 14.5051H52.6848C52.9961 14.5051 53.1523 14.6613 53.1523 14.9727V20.9822L58.7264 14.7542C58.8505 14.5883 59.0377 14.5051 59.2867 14.5051H62.4323C62.6391 14.5051 62.7695 14.5569 62.8213 14.6613C62.8731 14.765 62.8371 14.8996 62.7122 15.0655L56.8269 21.4497L63.3039 30.0757C63.5321 30.4493 63.4284 30.6361 62.9926 30.6361ZM78.3443 24.7194C78.3443 26.6502 77.7012 28.1812 76.4142 29.3124C75.1265 30.4443 73.4033 31.0096 71.2451 31.0096C69.0857 31.0096 67.3625 30.4443 66.0755 29.3124C64.7885 28.1812 64.1446 26.6502 64.1446 24.7194V20.5467C64.1446 18.5954 64.7885 17.0381 66.0755 15.8752C67.3625 14.7132 69.0857 14.1316 71.2451 14.1316C73.4033 14.1316 75.1265 14.7132 76.4142 15.8752C77.7012 17.0381 78.3443 18.5954 78.3443 20.5467V24.7194ZM67.7882 24.7194C67.7882 26.7539 68.9402 27.7713 71.2451 27.7713C72.3661 27.7713 73.2223 27.5118 73.8136 26.9925C74.4057 26.4735 74.7011 25.7155 74.7011 24.7194V20.5467C74.7011 19.5293 74.4002 18.7454 73.7985 18.1951C73.1964 17.6456 72.3449 17.3703 71.2451 17.3703C70.124 17.3703 69.2674 17.6402 68.6754 18.18C68.0841 18.7195 67.7882 19.5088 67.7882 20.5467V24.7194ZM85.5995 30.6361H82.766C82.4752 30.6361 82.3298 30.4802 82.3298 30.1689V8.83745C82.3298 8.52615 82.4752 8.37069 82.766 8.37069H86.1602C86.4092 8.37069 86.5751 8.48515 86.6583 8.71332L90.4573 15.7824C91.2462 17.2558 92.1287 19.0834 93.1044 21.2629H93.2285C94.2046 19.0834 95.0871 17.2558 95.8756 15.7824L99.6437 8.71332C99.7682 8.48515 99.9446 8.37069 100.173 8.37069H103.536C103.848 8.37069 104.004 8.52615 104.004 8.83745V30.1689C104.004 30.4802 103.848 30.6361 103.536 30.6361H100.703C100.412 30.6361 100.266 30.4802 100.266 30.1689V23.9096C100.266 21.4601 100.349 18.2005 100.515 14.1316L100.423 14.1002C99.7992 15.4499 98.8652 17.3703 97.6193 19.8611L94.8794 25.1865C94.7754 25.4151 94.5994 25.5291 94.3496 25.5291H91.9833C91.7339 25.5291 91.5579 25.4151 91.4539 25.1865L88.7137 19.8611C87.468 17.3703 86.5341 15.4499 85.9108 14.1002L85.8179 14.1316C85.9838 18.2005 86.0666 21.4601 86.0666 23.9096V30.1689C86.0666 30.4802 85.9108 30.6361 85.5995 30.6361ZM121.598 20.5158V23.6605C121.598 23.9514 121.442 24.0968 121.13 24.0968H111.664V24.968C111.664 25.9027 111.96 26.6135 112.551 27.1015C113.143 27.5895 113.947 27.8336 114.965 27.8336C116.48 27.8336 117.944 27.3556 119.356 26.4012C119.604 26.2345 119.812 26.2658 119.978 26.494L121.255 28.2071C121.463 28.4357 121.432 28.6534 121.162 28.8611C119.356 30.2934 117.248 31.0096 114.84 31.0096C112.93 31.0096 111.316 30.4853 109.998 29.4373C108.68 28.3885 108.021 26.8892 108.021 24.9375V20.5158C108.021 18.3769 108.685 16.7786 110.014 15.7198C111.342 14.6613 112.961 14.1316 114.871 14.1316C116.76 14.1316 118.354 14.6613 119.651 15.7198C120.949 16.7786 121.598 18.3769 121.598 20.5158ZM118.079 20.4845C118.079 19.4044 117.778 18.6054 117.176 18.0865C116.574 17.5671 115.806 17.3076 114.871 17.3076C112.733 17.3076 111.664 18.3664 111.664 20.4845V21.2935H118.079V20.4845ZM128.323 16.0624C129.404 15.5434 130.607 15.284 131.936 15.284C133.908 15.284 135.507 15.8393 136.731 16.9499C137.956 18.0606 138.569 19.6329 138.569 21.6674V24.439C138.569 26.6189 137.899 28.2589 136.56 29.3591C135.221 30.4593 133.555 31.0096 131.562 31.0096C129.632 31.0096 128.007 30.4543 126.689 29.3437C125.371 28.233 124.711 26.5876 124.711 24.4081V15.0036C124.711 13.0936 125.339 11.5885 126.595 10.4883C127.852 9.38774 129.341 8.67155 131.064 8.33975C133.535 7.90354 135.102 7.51915 135.766 7.18735C136.057 7.06244 136.264 7.11503 136.389 7.34319L137.541 9.3046C137.666 9.59541 137.613 9.80307 137.385 9.92798C136.659 10.3429 134.977 10.8515 132.341 11.4532C131.759 11.5986 131.271 11.744 130.877 11.8894C130.483 12.0348 130.067 12.2425 129.632 12.512C129.196 12.7823 128.868 13.1354 128.651 13.5712C128.433 14.007 128.323 14.526 128.323 15.1281V16.0624ZM131.531 27.7713C132.507 27.7713 133.311 27.501 133.944 26.9615C134.577 26.4217 134.894 25.5914 134.894 24.4703V21.7297C134.894 19.4875 133.794 18.3664 131.593 18.3664C130.368 18.3664 129.279 18.6159 128.323 19.114V24.439C128.323 25.581 128.625 26.4217 129.227 26.9615C129.829 27.501 130.597 27.7713 131.531 27.7713ZM155.011 20.5158V23.6605C155.011 23.9514 154.855 24.0968 154.543 24.0968H145.077V24.968C145.077 25.9027 145.373 26.6135 145.964 27.1015C146.556 27.5895 147.36 27.8336 148.378 27.8336C149.893 27.8336 151.357 27.3556 152.768 26.4012C153.017 26.2345 153.225 26.2658 153.391 26.494L154.668 28.2071C154.876 28.4357 154.845 28.6534 154.575 28.8611C152.768 30.2934 150.661 31.0096 148.253 31.0096C146.343 31.0096 144.729 30.4853 143.411 29.4373C142.092 28.3885 141.433 26.8892 141.433 24.9375V20.5158C141.433 18.3769 142.098 16.7786 143.427 15.7198C144.755 14.6613 146.374 14.1316 148.284 14.1316C150.173 14.1316 151.767 14.6613 153.065 15.7198C154.362 16.7786 155.011 18.3769 155.011 20.5158ZM151.492 20.4845C151.492 19.4044 151.191 18.6054 150.588 18.0865C149.987 17.5671 149.219 17.3076 148.284 17.3076C146.146 17.3076 145.077 18.3664 145.077 20.4845V21.2935H151.492V20.4845ZM162.826 25.342C162.432 27.3146 161.83 28.6998 161.02 29.4995C160.211 30.2989 158.924 30.7297 157.159 30.7919C156.868 30.7919 156.723 30.6361 156.723 30.3248V28.0513C156.723 27.7814 156.868 27.6155 157.159 27.5528C157.761 27.5118 158.233 27.2628 158.576 26.8057C158.918 26.349 159.204 25.5291 159.432 24.3454C159.785 22.2904 160.045 19.1557 160.211 14.9413C160.252 14.6505 160.408 14.5051 160.678 14.5051H171.265C171.577 14.5051 171.733 14.6505 171.733 14.9413V30.1689C171.733 30.4802 171.577 30.6361 171.265 30.6361H168.587C168.276 30.6361 168.121 30.4802 168.121 30.1689V17.6816H163.574C163.47 20.6504 163.221 23.2038 162.826 25.342ZM182.569 30.6361H176.123C175.811 30.6361 175.656 30.4802 175.656 30.1689V14.9413C175.656 14.6505 175.811 14.5051 176.123 14.5051H178.801C179.112 14.5051 179.268 14.6505 179.268 14.9413V19.737H182.569C184.479 19.737 186.021 20.225 187.194 21.2007C188.366 22.1763 188.953 23.526 188.953 25.2488C188.953 27.0961 188.387 28.4562 187.255 29.3282C186.124 30.1999 184.562 30.6361 182.569 30.6361ZM179.268 22.6953V27.6464H181.946C184.188 27.6464 185.309 26.8266 185.309 25.1865C185.33 24.3357 185.06 23.7069 184.5 23.3028C183.939 22.8979 183.088 22.6953 181.946 22.6953H179.268ZM18.6436 11.6345L15.2227 22.1628H23.7842L20.3641 11.6345H18.6436Z" fill="black"/>
</svg>
