<svg width="78" height="78" viewBox="0 0 78 78" fill="none" xmlns="http://www.w3.org/2000/svg">
<g filter="url(#filter0_d_36_9)">
<circle cx="37" cy="37" r="30" fill="white"/>
</g>
<path d="M49.9948 37.2319C49.9948 37.0315 49.8736 36.7653 49.7506 36.6359L42.8187 29.2704C42.495 28.9358 41.9707 28.8971 41.5935 29.2365C41.2562 29.5403 41.2478 30.1323 41.5597 30.462L47.124 36.3652H24.8664C24.3877 36.3652 24 36.7532 24 37.2316C24 37.7103 24.388 38.098 24.8664 38.098H47.124L41.5597 44.0012C41.2478 44.3309 41.2698 44.9084 41.5935 45.2263C41.935 45.5621 42.5002 45.5322 42.8187 45.1925L49.7506 37.8273C49.9543 37.6275 49.9914 37.435 49.9948 37.2316V37.2319Z" fill="#384685"/>
<defs>
<filter id="filter0_d_36_9" x="0" y="0" width="78" height="78" filterUnits="userSpaceOnUse" color-interpolation-filters="sRGB">
<feFlood flood-opacity="0" result="BackgroundImageFix"/>
<feColorMatrix in="SourceAlpha" type="matrix" values="0 0 0 0 0 0 0 0 0 0 0 0 0 0 0 0 0 0 127 0" result="hardAlpha"/>
<feMorphology radius="1" operator="dilate" in="SourceAlpha" result="effect1_dropShadow_36_9"/>
<feOffset dx="2" dy="2"/>
<feGaussianBlur stdDeviation="4"/>
<feComposite in2="hardAlpha" operator="out"/>
<feColorMatrix type="matrix" values="0 0 0 0 0 0 0 0 0 0 0 0 0 0 0 0 0 0 0.1 0"/>
<feBlend mode="normal" in2="BackgroundImageFix" result="effect1_dropShadow_36_9"/>
<feBlend mode="normal" in="SourceGraphic" in2="effect1_dropShadow_36_9" result="shape"/>
</filter>
</defs>
</svg>
