<svg width="78" height="78" viewBox="0 0 78 78" fill="none" xmlns="http://www.w3.org/2000/svg">
<g filter="url(#filter0_d_36_9)">
<circle cx="37" cy="37" r="30" transform="rotate(-180 37 37)" fill="white"/>
</g>
<path d="M24.0052 36.7681C24.0052 36.9685 24.1264 37.2347 24.2494 37.3641L31.1813 44.7296C31.505 45.0642 32.0293 45.1029 32.4065 44.7635C32.7438 44.4597 32.7522 43.8677 32.4403 43.538L26.876 37.6348H49.1336C49.6123 37.6348 50 37.2468 50 36.7684C50 36.2897 49.612 35.902 49.1336 35.902H26.876L32.4403 29.9988C32.7522 29.6691 32.7302 29.0916 32.4065 28.7737C32.065 28.4379 31.4998 28.4678 31.1813 28.8075L24.2494 36.1727C24.0457 36.3725 24.0086 36.565 24.0052 36.7684V36.7681Z" fill="#384685"/>
<defs>
<filter id="filter0_d_36_9" x="0" y="0" width="78" height="78" filterUnits="userSpaceOnUse" color-interpolation-filters="sRGB">
<feFlood flood-opacity="0" result="BackgroundImageFix"/>
<feColorMatrix in="SourceAlpha" type="matrix" values="0 0 0 0 0 0 0 0 0 0 0 0 0 0 0 0 0 0 127 0" result="hardAlpha"/>
<feMorphology radius="1" operator="dilate" in="SourceAlpha" result="effect1_dropShadow_36_9"/>
<feOffset dx="2" dy="2"/>
<feGaussianBlur stdDeviation="4"/>
<feComposite in2="hardAlpha" operator="out"/>
<feColorMatrix type="matrix" values="0 0 0 0 0 0 0 0 0 0 0 0 0 0 0 0 0 0 0.1 0"/>
<feBlend mode="normal" in2="BackgroundImageFix" result="effect1_dropShadow_36_9"/>
<feBlend mode="normal" in="SourceGraphic" in2="effect1_dropShadow_36_9" result="shape"/>
</filter>
</defs>
</svg>
