<svg width="23" height="23" viewBox="0 0 23 23" fill="none" xmlns="http://www.w3.org/2000/svg">
<path d="M20.7712 21.4919C20.588 21.4919 20.4047 21.422 20.2648 21.2821L11.8272 12.8428C11.5474 12.5629 11.5474 12.1096 11.8272 11.8298C12.107 11.5499 12.5603 11.5499 12.84 11.8298L21.2777 20.269C21.5574 20.5489 21.5574 21.0022 21.2777 21.2821C21.1378 21.422 20.9545 21.4919 20.7712 21.4919Z" fill="#A8D1E7"/>
<path d="M8.11447 14.7973C6.40358 14.7973 4.69199 14.1457 3.3896 12.8427C0.784096 10.2366 0.784096 5.99671 3.3896 3.39069C4.65143 2.12826 6.32944 1.43286 8.11447 1.43286C9.9002 1.43286 11.5782 2.12826 12.84 3.39069C15.4455 5.99671 15.4455 10.2366 12.84 12.8427C11.5376 14.1457 9.82605 14.7973 8.11447 14.7973ZM8.11447 2.86564C6.71274 2.86564 5.39426 3.41168 4.40242 4.40372C2.35579 6.4511 2.35579 9.78225 4.40242 11.8296C6.44975 13.8774 9.78129 13.876 11.8272 11.8296C13.8738 9.78225 13.8738 6.4511 11.8272 4.40372C10.8354 3.41168 9.51689 2.86564 8.11447 2.86564Z" fill="#A8D1E7"/>
</svg>
